<svg version="1.1" id="Layer_1" xmlns="http://www.w3.org/2000/svg" xmlns:xlink="http://www.w3.org/1999/xlink" x="0px" y="0px"
	 width="100%" viewBox="0 0 170 170" enable-background="new 0 0 170 170" xml:space="preserve">
<path fill="#F4EBFF" opacity="1.000000" stroke="none" 
	d="
M60.000000,122.999985 
	C60.000000,100.868530 60.000000,79.237061 60.000000,57.303085 
	C48.412251,57.303085 37.013268,57.303085 24.999290,57.303085 
	C24.999290,59.932129 25.377247,62.768253 24.842665,65.420441 
	C24.568081,66.782715 22.764261,68.690659 21.479685,68.836288 
	C17.533503,69.283638 13.472146,69.283524 9.525895,68.836464 
	C8.239722,68.690765 6.204054,66.674232 6.157359,65.450531 
	C5.852772,57.468365 6.087777,49.467548 5.961187,41.475765 
	C5.904910,37.922920 8.074962,37.978077 10.575197,37.983231 
	C26.562714,38.016193 42.550327,38.000008 58.537910,38.000004 
	C83.830345,37.999996 109.122772,38.000000 134.998108,38.000000 
	C134.998108,47.462399 135.092911,56.722523 134.865112,65.974701 
	C134.839722,67.005623 133.085617,68.148628 131.925201,68.931160 
	C131.352493,69.317345 130.304932,68.997231 129.472260,69.000313 
	C117.596184,69.044373 117.596184,69.044525 116.719055,57.260807 
	C105.339920,57.260807 93.937500,57.260807 82.266632,57.260807 
	C82.266632,86.988556 82.266632,116.710030 82.266632,146.835068 
	C88.961327,146.835068 95.701111,146.835068 102.717865,146.835068 
	C102.717865,153.300217 102.717865,159.368469 102.717865,165.720123 
	C81.701012,165.720123 60.641129,165.720123 39.290031,165.720123 
	C39.290031,159.716522 39.290031,153.647751 39.290031,147.172852 
	C45.953171,147.172852 52.692810,147.172852 60.000000,147.172852 
	C60.000000,139.022583 60.000000,131.261276 60.000000,122.999985 
z"/>
<path fill="#FF4545" opacity="1.000000" stroke="none" 
	d="
M149.264069,56.237473 
	C154.500565,51.004246 154.689545,50.833481 159.339157,55.979023 
	C162.087418,59.020420 167.320343,60.867641 165.523346,67.337433 
	C163.179062,66.517410 161.021225,65.762604 158.408539,64.848694 
	C158.408539,89.986961 158.408539,114.822182 158.408539,139.600143 
	C160.660965,138.983093 163.024139,138.335693 165.503281,137.656525 
	C166.077042,142.922745 158.887329,151.754868 154.517212,151.998123 
	C150.735443,152.208633 143.080917,143.270081 143.137009,137.737122 
	C145.681931,138.353333 148.022720,138.920105 150.630814,139.551605 
	C150.630814,114.627037 150.630814,89.481819 150.630814,64.061577 
	C148.338882,65.271820 146.183487,66.409966 143.776566,67.680923 
	C141.316010,61.284241 146.715729,59.691402 149.264069,56.237473 
z"/>
<path fill="#52BFFF" opacity="1.000000" stroke="none" 
	d="
M60.000000,21.000000 
	C50.542263,21.000000 41.584526,21.000000 32.630444,21.000000 
	C34.070835,23.709581 35.434761,26.275314 36.798687,28.841049 
	C36.321751,29.415426 35.844814,29.989805 35.367878,30.564182 
	C33.270729,29.579060 30.961897,28.881344 29.131880,27.533518 
	C27.011311,25.971695 25.412476,23.722198 23.405415,21.980675 
	C20.406542,19.378551 19.990461,16.985064 23.219231,14.215347 
	C25.361109,12.377991 27.095531,10.051971 29.295824,8.300898 
	C30.930964,6.999597 33.021107,6.270029 34.908588,5.285807 
	C35.444214,5.783150 35.979839,6.280493 36.515461,6.777836 
	C35.075748,9.311419 33.636032,11.845000 32.025135,14.679827 
	C57.922268,14.679827 83.630875,14.679827 109.071335,14.679827 
	C107.924942,12.291482 106.631477,9.596735 105.338020,6.901989 
	C105.921860,6.333823 106.505699,5.765657 107.089546,5.197491 
	C109.354790,6.588139 111.987724,7.608394 113.823936,9.431224 
	C123.678169,19.213669 123.656639,16.756107 113.860977,26.574501 
	C112.212601,28.226702 110.034798,29.350706 108.101616,30.718765 
	C107.578812,30.291018 107.056000,29.863272 106.533195,29.435524 
	C107.272903,26.785053 108.012611,24.134584 108.887421,21.000000 
	C93.136116,21.000000 76.818054,21.000000 60.000000,21.000000 
z"/>
</svg>