<svg xmlns="http://www.w3.org/2000/svg" version="1.1" xmlns:xlink="http://www.w3.org/1999/xlink" width="1500" height="571" viewBox="0 0 1500 571"><svg xml:space="preserve" width="1500" height="571" data-version="2" data-id="lg_XDRzkY6SCbCauAhOzR" viewBox="0 0 504 571" x="0" y="0"><rect width="100%" height="100%" fill="transparent"></rect><path fill="#ff2149" d="M499.176 565.502H4.824S115.435 71.15 252 71.15s247.176 494.352 247.176 494.352" opacity=".6"></path><path fill="#d754ff" d="M4.824 5.498h494.352S388.565 499.85 252 499.85 4.824 5.498 4.824 5.498" opacity=".6"></path><path fill="#330042" d="M345.54 327.96h-137.9v-44.01h137.9Zm19.65 98.43H207.64q-9.07 0-19.82-3.19t-19.91-10.5q-9.15-7.31-15.28-18.98-6.13-11.67-6.13-28.64V207.53q0-4.54 1.68-8.57 1.67-4.03 4.61-7.05 2.94-3.03 6.98-4.71 4.03-1.68 8.73-1.68h196.69v43.68H190.17v135.88q0 8.57 4.53 13.1 4.54 4.54 13.27 4.54h157.22Z"></path><rect width="218.69" height="240.87" x="-109.34" y="-120.44" fill="none" rx="0" ry="0" transform="translate(256.35 306.45)"></rect></svg></svg>